HIERARCHY
ROOT Hips
{
	OFFSET 0.000000 0.000000 0.000000
	CHANNELS 6 Xposition Yposition Zposition Zrotation Yrotation Xrotation 
	JOINT LHipJoint
	{
		OFFSET 0.000000 0.000000 0.000000
		CHANNELS 3 Zrotation Yrotation Xrotation
		JOINT LeftUpLeg
		{
			OFFSET 8.178360 -10.767780 5.035740
			CHANNELS 3 Zrotation Yrotation Xrotation
			JOINT LeftLeg
			{
				OFFSET 14.688660 -40.356780 0.000000
				CHANNELS 3 Zrotation Yrotation Xrotation
				JOINT LeftFoot
				{
					OFFSET 15.373200 -42.237540 0.000000
					CHANNELS 3 Zrotation Yrotation Xrotation
					JOINT LeftToeBase
					{
						OFFSET 0.945840 -2.598660 13.935300
						CHANNELS 3 Zrotation Yrotation Xrotation
						End Site
						{
							OFFSET 0.000000 0.000000 0.000000
						}
					}
				}
			}
		}
	}
	JOINT RHipJoint
	{
		OFFSET 0.000000 0.000000 0.000000
		CHANNELS 3 Zrotation Yrotation Xrotation
		JOINT RightUpLeg
		{
			OFFSET -7.833120 -10.767780 5.035740
			CHANNELS 3 Zrotation Yrotation Xrotation
			JOINT RightLeg
			{
				OFFSET -15.255180 -41.913300 0.000000
				CHANNELS 3 Zrotation Yrotation Xrotation
				JOINT RightFoot
				{
					OFFSET -15.409560 -42.337380 0.000000
					CHANNELS 3 Zrotation Yrotation Xrotation
					JOINT RightToeBase
					{
						OFFSET -0.988380 -2.715540 14.178900
						CHANNELS 3 Zrotation Yrotation Xrotation
						End Site
						{
							OFFSET 0.000000 0.000000 0.000000
						}
					}
				}
			}
		}
	}
	JOINT LowerBack
	{
		OFFSET 0.000000 0.000000 0.000000
		CHANNELS 3 Zrotation Yrotation Xrotation
		JOINT Spine
		{
			OFFSET 0.169620 12.213540 -1.160280
			CHANNELS 3 Zrotation Yrotation Xrotation
			JOINT Spine1
			{
				OFFSET 0.340320 12.293100 -0.256500
				CHANNELS 3 Zrotation Yrotation Xrotation
				JOINT Neck
				{
					OFFSET 0.000000 0.000000 0.000000
					CHANNELS 3 Zrotation Yrotation Xrotation
					JOINT Neck1
					{
						OFFSET -0.325020 10.477440 1.032120
						CHANNELS 3 Zrotation Yrotation Xrotation
						JOINT Head
						{
							OFFSET 0.624420 10.568160 -0.743820
							CHANNELS 3 Zrotation Yrotation Xrotation
							End Site
							{
								OFFSET 0.000000 0.000000 0.000000
							}
						}
					}
				}
				JOINT LeftShoulder
				{
					OFFSET 0.000000 0.000000 0.000000
					CHANNELS 3 Zrotation Yrotation Xrotation
					JOINT LeftArm
					{
						OFFSET 20.174460 7.205340 -1.867260
						CHANNELS 3 Zrotation Yrotation Xrotation
						JOINT LeftForeArm
						{
							OFFSET 29.898000 -0.000000 -0.000000
							CHANNELS 3 Zrotation Yrotation Xrotation
							JOINT LeftHand
							{
								OFFSET 20.901360 -0.000000 -0.000000
								CHANNELS 3 Zrotation Yrotation Xrotation
								JOINT LeftFingerBase
								{
									OFFSET 0.000000 0.000000 0.000000
									CHANNELS 3 Zrotation Yrotation Xrotation
									JOINT LeftHandIndex1
									{
										OFFSET 4.291560 -0.000000 -0.000000
										CHANNELS 3 Zrotation Yrotation Xrotation
										End Site
										{
											OFFSET 0.000000 0.000000 0.000000
										}
									}
								}
								JOINT LThumb
								{
									OFFSET 0.000000 0.000000 0.000000
									CHANNELS 3 Zrotation Yrotation Xrotation
									End Site
									{
										OFFSET 0.000000 0.000000 0.000000
									}
								}
							}
						}
					}
				}
				JOINT RightShoulder
				{
					OFFSET 0.000000 0.000000 0.000000
					CHANNELS 3 Zrotation Yrotation Xrotation
					JOINT RightArm
					{
						OFFSET -18.819600 8.244300 -2.427900
						CHANNELS 3 Zrotation Yrotation Xrotation
						JOINT RightForeArm
						{
							OFFSET -31.451400 -0.000000 -0.000000
							CHANNELS 3 Zrotation Yrotation Xrotation
							JOINT RightHand
							{
								OFFSET -20.665020 -0.000000 -0.000000
								CHANNELS 3 Zrotation Yrotation Xrotation
								JOINT RightFingerBase
								{
									OFFSET 0.000000 0.000000 0.000000
									CHANNELS 3 Zrotation Yrotation Xrotation
									JOINT RightHandIndex1
									{
										OFFSET -3.735180 -0.000000 -0.000000
										CHANNELS 3 Zrotation Yrotation Xrotation
										End Site
										{
											OFFSET 0.000000 0.000000 0.000000
										}
									}
								}
								JOINT RThumb
								{
									OFFSET 0.000000 0.000000 0.000000
									CHANNELS 3 Zrotation Yrotation Xrotation
									End Site
									{
										OFFSET 0.000000 0.000000 0.000000
									}
								}
							}
						}
					}
				}
			}
		}
	}
}
MOTION
Frames:	9
Frame Time:	0.0333333
24.218412 107.447832 61.986132 -178.816716 46.973934 -175.125785 -3.402044 1.832789 2.642524 -20.480641 -19.403210 2.724692 0.508305 7.648369 23.983747 0.965893 -17.820784 3.204504 0.213300 2.973300 8.204400 0.464193 -1.057335 0.683867 14.319527 7.457022 -29.559330 -1.482146 -8.821462 25.690989 -1.928562 13.494046 6.072630 -1.561700 7.886300 -22.369400 -2.567421 4.973286 10.459775 -0.788566 6.627539 2.741557 -4.299403 3.585113 -2.767755 -5.463626 8.224617 -11.471528 1.874632 20.577544 37.518506 5.741800 7.881100 20.023600 -6.262652 -1.826308 -1.363798 -84.302330 7.177142 15.220557 16.634567 -23.750299 -4.107283 -1.421402 -2.354975 6.129618 21.821639 23.207437 10.422800 -7.125000 0.000000 0.000000 -7.540100 57.396900 -2.298000 5.014170 0.015769 -1.298468 80.059684 -0.206763 14.306612 -24.174120 33.774147 -7.863021 0.407150 -0.020517 1.175244 -16.966281 7.600406 -2.368500 7.125000 0.000000 0.000000 6.874200 -22.044300 3.818500 
21.946674 107.723544 63.338838 -179.307161 50.135666 -176.198641 -3.431992 1.715583 2.572442 -21.149472 -18.115937 1.037183 0.642003 7.923447 24.829356 0.924470 -16.631470 3.547576 0.203800 2.907100 8.020300 0.426556 -1.086719 0.708541 14.159145 7.663521 -28.311901 -2.188467 -10.121264 29.693030 -1.340592 6.659376 1.059350 -1.585800 7.944100 -22.544400 -2.392411 5.246572 10.449485 -1.060654 7.022998 2.799675 -4.903671 3.826692 -2.535120 -5.859298 8.038185 -11.360266 2.030578 20.384190 37.883333 5.888200 7.718800 20.136500 -6.313433 -1.796980 -1.354632 -83.471659 7.033712 15.234062 16.361565 -23.413961 -3.969279 -1.482896 -2.308280 6.087722 22.503906 22.816288 10.627100 -7.125000 0.000000 0.000000 -6.540600 57.107400 -1.945800 5.006608 0.061259 -1.265852 80.929034 1.342619 15.715664 -23.808589 33.377205 -7.653756 0.401153 -0.042529 1.756193 -16.843116 8.059038 -2.496300 7.125000 0.000000 0.000000 6.958100 -21.555700 3.943600 
19.816098 108.067728 64.545588 -179.873545 52.969852 -177.431391 -3.441299 1.628168 2.510896 -21.561897 -16.945982 -0.492735 0.745517 8.137279 25.483919 0.850098 -16.099312 4.696967 0.272100 3.355500 9.270200 0.342397 -1.126680 0.743246 13.977941 7.648948 -26.636615 -3.179975 -11.588582 34.600606 -0.472736 0.959384 -1.781502 -1.383100 7.441600 -21.030400 -2.136545 5.367178 10.234953 -1.230780 7.243158 2.953559 -5.322953 3.979076 -2.055275 -6.358757 7.935864 -11.652604 2.484400 20.149916 38.151212 6.206000 7.529900 20.244100 -6.340636 -1.743230 -1.349340 -83.056602 6.854389 14.293953 16.278204 -23.326916 -3.921494 -1.514841 -2.264758 5.982730 22.955223 22.325165 10.658700 -7.125000 0.000000 0.000000 -5.793200 56.655800 -1.659100 4.997711 0.102533 -1.248013 81.690072 1.953014 17.577359 -24.059078 33.671895 -7.827948 0.371961 -0.070639 3.011568 -16.088642 8.807294 -2.601400 7.125000 0.000000 0.000000 7.507600 -20.799200 4.389700 
17.782230 108.344034 65.669442 179.762332 55.335926 -178.297500 -3.447213 1.527251 2.451803 -21.659537 -15.588336 -2.228053 0.838300 8.334461 26.062044 0.818877 -15.713276 5.347679 0.150800 2.502200 6.895900 0.250173 -1.167884 0.801160 13.941054 7.172125 -24.661344 -4.271214 -12.878803 39.368615 -0.069122 -1.297325 -3.109673 -0.997900 6.357300 -17.824700 -1.931641 5.392745 10.079479 -1.228910 7.267484 2.856476 -5.415392 4.000702 -2.114916 -6.617671 7.751830 -11.834024 2.757674 19.731159 38.304382 6.354900 7.310100 20.390000 -6.296882 -1.647150 -1.393050 -83.128253 7.936437 13.416703 16.564621 -23.781000 -4.072688 -1.454931 -2.322917 5.099404 22.788136 22.586845 10.681000 -7.125000 0.000000 0.000000 -6.121200 56.924800 -1.793300 4.957587 0.102077 -1.262793 82.013691 1.474878 20.176341 -24.800222 34.461786 -8.297308 0.357126 -0.063713 3.616110 -15.706260 8.666993 -2.492800 7.125000 0.000000 0.000000 7.796100 -20.973500 4.530500 
15.885318 108.643770 66.832338 -179.499782 57.546240 -178.155805 -3.463611 1.477698 2.388065 -21.064713 -15.154984 -3.413549 0.873296 8.466967 26.399471 0.817698 -14.605164 5.771429 0.087300 1.905300 5.244100 0.169450 -1.238581 0.871023 14.743195 6.382946 -22.206337 -5.277985 -13.865699 43.406686 0.180665 -2.582676 -3.408984 -0.725600 5.442700 -15.175600 -1.440595 5.435743 9.760176 -1.039778 7.332177 2.710137 -5.308096 4.015105 -2.212209 -6.353996 7.697003 -11.597134 2.512639 19.237969 37.955786 6.057000 7.160100 20.194800 -6.236955 -1.602703 -1.415245 -83.251872 8.693138 12.555896 16.810835 -24.162634 -4.201886 -1.432837 -2.361019 4.490399 22.950847 22.801426 10.854900 -7.125000 0.000000 0.000000 -6.039900 57.209000 -1.810900 4.941138 0.081797 -1.280744 82.510246 0.856114 21.502792 -25.391800 35.069538 -8.671319 0.351368 -0.063645 4.359302 -15.667503 8.636251 -2.475700 7.125000 0.000000 0.000000 7.828500 -21.011700 4.542800 
14.062284 108.851598 68.005446 -179.030697 58.882628 -178.055726 -3.439284 1.365840 2.359850 -20.144699 -13.238849 -5.435606 0.895456 8.539349 26.579079 0.818761 -15.590510 6.987963 0.103700 2.076700 5.717600 0.099908 -1.283004 0.928357 15.348359 4.704669 -19.611101 -6.195057 -14.629415 46.862040 0.239180 -2.868216 -3.380779 -0.660000 5.196000 -14.468300 -1.237239 5.201183 9.308444 -0.800517 6.993901 2.540255 -4.863081 3.822912 -2.338253 -6.453904 7.542161 -11.224528 2.575875 18.663023 37.681178 5.948700 6.964900 19.918300 -6.185964 -1.538605 -1.448064 -83.344142 9.443178 12.601650 17.040467 -24.512055 -4.336166 -1.361978 -2.389686 3.819758 22.521344 22.792757 10.624000 -7.125000 0.000000 0.000000 -6.555100 57.111300 -1.950700 4.925268 0.086497 -1.290730 82.816660 0.388933 22.207419 -25.706302 35.378228 -8.867617 0.357577 -0.061729 4.074816 -15.855235 8.728133 -2.533300 7.125000 0.000000 0.000000 7.687200 -20.908500 4.477400 
12.242256 109.140522 69.282468 -178.910487 59.790042 -178.052125 -3.445870 1.301317 2.300017 -19.550594 -12.539090 -6.798117 0.794369 8.421365 26.160639 0.807668 -15.542942 8.660198 0.199600 2.876800 7.935900 0.052811 -1.336849 0.997389 15.774710 2.820903 -16.922879 -6.878072 -15.110447 49.307019 0.220695 -2.677345 -2.365891 -0.509600 4.575900 -12.702800 -1.347876 4.927769 8.903121 -0.628591 6.587003 2.401275 -4.349852 3.599104 -2.415233 -6.607344 7.211968 -11.319735 2.884006 17.913345 37.664239 6.025000 6.668400 19.965800 -6.145603 -1.504777 -1.469140 -83.075762 9.581473 13.179303 17.214566 -24.775526 -4.437786 -1.400643 -2.396808 4.191599 23.013677 23.220920 11.051400 -7.125000 0.000000 0.000000 -6.181000 57.685600 -1.924500 4.926375 0.123496 -1.296212 83.249844 0.244722 21.928897 -25.809384 35.480217 -8.935166 0.344651 -0.070624 4.095257 -15.447487 9.096185 -2.569800 7.125000 0.000000 0.000000 7.980500 -20.541400 4.718200 
10.401198 109.386798 70.658004 -178.035002 60.490927 -177.213247 -3.438446 1.203483 2.220738 -18.514970 -11.626887 -8.581830 0.748511 8.402539 26.007252 0.844835 -16.018990 9.156128 0.000800 0.184200 0.506100 0.033931 -1.379363 1.065680 16.751638 1.071332 -14.015099 -7.186588 -15.246824 50.362508 0.019741 -1.469944 -0.921823 -0.594700 4.936900 -13.728700 -1.095479 4.619116 8.425032 -0.412765 6.179069 2.300571 -3.932566 3.374648 -2.351722 -6.782633 6.910806 -11.272113 3.117202 17.133613 37.426272 6.030600 6.371700 19.803000 -6.099453 -1.486642 -1.476647 -82.699980 9.363313 13.719828 17.514669 -25.191397 -4.610636 -1.436919 -2.304649 4.372338 23.705119 22.290773 11.006700 -7.125000 0.000000 0.000000 -4.983600 56.785100 -1.441900 4.924284 0.169884 -1.295834 83.803817 0.112093 21.216127 -26.050792 35.707764 -9.082516 0.349845 -0.039436 3.609840 -15.525946 8.295717 -2.351100 7.125000 0.000000 0.000000 7.941900 -21.388700 4.541500 
8.526510 109.599432 71.960256 -176.871593 61.149436 -176.142815 -3.430196 1.126321 2.087133 -17.506426 -11.834799 -10.027762 0.734776 8.457083 26.081594 0.872758 -15.756639 10.006426 0.000200 0.086000 0.236400 0.036439 -1.430800 1.151093 17.783409 -0.876477 -10.890782 -7.062778 -15.035790 49.846950 -0.212850 -0.011645 0.898423 -0.764000 5.581800 -15.575700 -0.646671 4.411827 8.010481 -0.162373 5.927208 2.233713 -3.584900 3.227658 -2.241189 -6.813290 6.535025 -10.902376 2.959286 16.305490 37.107442 5.789400 6.063800 19.549600 -6.084248 -1.516263 -1.453829 -82.083434 8.477328 14.309058 17.499221 -25.172625 -4.600599 -1.649283 -2.150316 5.214067 26.260752 21.238984 11.833700 -7.125000 0.000000 0.000000 -1.599100 56.123900 -0.436400 4.937913 0.219932 -1.291517 84.065935 -0.090966 20.300167 -25.999172 35.655698 -9.042755 0.359415 -0.046626 3.130904 -15.796065 8.642222 -2.496400 7.125000 0.000000 0.000000 7.731600 -21.009600 4.486000 
